<svg xmlns="http://www.w3.org/2000/svg" xmlns:xlink="http://www.w3.org/1999/xlink" viewBox="0 0 167.85 186.8"><defs><style>.cls-1{fill:url(#Dégradé_sans_nom_2);}.cls-2{fill:#fff;}</style><linearGradient id="Dégradé_sans_nom_2" x1="141.97" y1="30.62" x2="36.92" y2="144.24" gradientUnits="userSpaceOnUse"><stop offset="0" stop-color="#f7931e"/><stop offset="1" stop-color="#ea2d3e"/></linearGradient></defs><g id="Calque_2" data-name="Calque 2"><g id="Calque_1-2" data-name="Calque 1"><path class="cls-1" d="M104.27,13.26l4.66,10.57A22.22,22.22,0,0,0,131.67,37l11.48-1.24C162.37,33.63,174.91,55.36,163.5,71l-6.83,9.32a22.24,22.24,0,0,0,0,26.26l6.83,9.32c11.41,15.6-1.13,37.33-20.35,35.24l-11.48-1.25A22.23,22.23,0,0,0,108.93,163l-4.66,10.57c-7.8,17.68-32.89,17.68-40.69,0L58.92,163a22.24,22.24,0,0,0-22.75-13.13l-11.48,1.25C5.48,153.18-7.07,131.45,4.35,115.85l6.82-9.32a22.21,22.21,0,0,0,0-26.26L4.35,71C-7.07,55.36,5.48,33.63,24.69,35.72L36.17,37A22.22,22.22,0,0,0,58.92,23.83l4.66-10.57C71.38-4.42,96.47-4.42,104.27,13.26Z"/><path class="cls-2" d="M60.52,67.29a4.17,4.17,0,0,0-4.17,4.17V94.57a4.17,4.17,0,1,0,8.34,0V71.46A4.17,4.17,0,0,0,60.52,67.29Z"/><path class="cls-2" d="M107.32,67.29a4.17,4.17,0,0,0-4.16,4.17V94.57a4.17,4.17,0,1,0,8.33,0V71.46A4.17,4.17,0,0,0,107.32,67.29Z"/></g></g></svg>