<svg xmlns="http://www.w3.org/2000/svg" xmlns:xlink="http://www.w3.org/1999/xlink" viewBox="0 0 426.31 186.8"><defs><style>.cls-1{fill:url(#Dégradé_sans_nom_2);}.cls-2{fill:#fff;}.cls-text{fill:#fff;}</style><linearGradient id="Dégradé_sans_nom_2" x1="141.97" y1="30.62" x2="36.92" y2="144.24" gradientUnits="userSpaceOnUse"><stop offset="0" stop-color="#f7931e"/><stop offset="1" stop-color="#ea2d3e"/></linearGradient></defs><g id="Calque_2" data-name="Calque 2"><g id="Calque_1-2" data-name="Calque 1"><path class="cls-text" d="M223.1,46.27h15l9.7,73.12H248l9.69-73.12h13.6L257,140.53H237.38Z"/><path class="cls-text" d="M292.05,100.4,274.14,46.27H289.9L300,80.88h.27l10.1-34.61h14.41L306.86,100.4v40.13H292.05Z"/><path class="cls-text" d="M331.5,46.27h22.36q11.44,0,16.7,5.32T375.81,68v3.77q0,7.27-2.36,11.85a13.8,13.8,0,0,1-7.2,6.6v.27q11,3.77,11,19.66v8.08q0,10.91-5.72,16.63t-16.77,5.72H331.5Zm20.61,38.38q4.44,0,6.66-2.29c1.48-1.53,2.23-4.08,2.23-7.68V69.43q0-5.12-1.82-7.4t-5.73-2.29h-7.13V84.65Zm2.69,42.42q3.9,0,5.79-2.09t1.89-7.2v-8.22q0-6.47-2.23-9t-7.33-2.49h-6.6v28.95Z"/><path class="cls-text" d="M385.91,46.27h40.4V59.74H400.72V84.65h20.33V98.12H400.72v28.95h25.59v13.46h-40.4Z"/><path class="cls-1" d="M104.27,13.26l4.66,10.57A22.22,22.22,0,0,0,131.67,37l11.48-1.24C162.37,33.63,174.91,55.36,163.5,71l-6.83,9.32a22.24,22.24,0,0,0,0,26.26l6.83,9.32c11.41,15.6-1.13,37.33-20.35,35.24l-11.48-1.25A22.23,22.23,0,0,0,108.93,163l-4.66,10.57c-7.8,17.68-32.89,17.68-40.69,0L58.92,163a22.24,22.24,0,0,0-22.75-13.13l-11.48,1.25C5.48,153.18-7.07,131.45,4.35,115.85l6.82-9.32a22.21,22.21,0,0,0,0-26.26L4.35,71C-7.07,55.36,5.48,33.63,24.69,35.72L36.17,37A22.22,22.22,0,0,0,58.92,23.83l4.66-10.57C71.38-4.42,96.47-4.42,104.27,13.26Z"/><path class="cls-2" d="M60.52,67.29a4.17,4.17,0,0,0-4.17,4.17V94.57a4.17,4.17,0,1,0,8.34,0V71.46A4.17,4.17,0,0,0,60.52,67.29Z"/><path class="cls-2" d="M107.32,67.29a4.17,4.17,0,0,0-4.16,4.17V94.57a4.17,4.17,0,1,0,8.33,0V71.46A4.17,4.17,0,0,0,107.32,67.29Z"/></g></g></svg>
